<mxfile host="65bd71144e" pages="2">
    <diagram id="6a731a19-8d31-9384-78a2-239565b7b9f0" name="Page-1">
        <mxGraphModel dx="1252" dy="779" grid="1" gridSize="10" guides="1" tooltips="1" connect="1" arrows="1" fold="1" page="1" pageScale="1" pageWidth="1169" pageHeight="827" background="#ffffff" math="0" shadow="0">
            <root>
                <mxCell id="0"/>
                <mxCell id="1" parent="0"/>
                <mxCell id="2" value="start" style="shape=mxgraph.flowchart.terminator;fillColor=#FFFFFF;strokeColor=#000000;strokeWidth=2;gradientColor=none;gradientDirection=north;fontColor=#001933;fontStyle=0;html=1;" parent="1" vertex="1">
                    <mxGeometry x="260" y="60" width="120" height="30" as="geometry"/>
                </mxCell>
                <mxCell id="3" value="入力値を受け取る" style="shape=mxgraph.flowchart.data;fillColor=#FFFFFF;strokeColor=#000000;strokeWidth=2;gradientColor=none;gradientDirection=north;fontColor=#001933;fontStyle=0;html=1;" parent="1" vertex="1">
                    <mxGeometry x="241" y="110" width="159" height="60" as="geometry"/>
                </mxCell>
                <mxCell id="7" style="fontColor=#001933;fontStyle=1;strokeColor=#003366;strokeWidth=1;html=1;" parent="1" source="2" target="3" edge="1">
                    <mxGeometry relative="1" as="geometry"/>
                </mxCell>
                <mxCell id="8" style="fontColor=#001933;fontStyle=1;strokeColor=#003366;strokeWidth=1;html=1;entryX=0.5;entryY=0;entryDx=0;entryDy=0;entryPerimeter=0;" parent="1" source="3" target="IXdv2FaGIRpFwEC2Vmre-55" edge="1">
                    <mxGeometry relative="1" as="geometry">
                        <mxPoint x="320" y="250" as="targetPoint"/>
                    </mxGeometry>
                </mxCell>
                <mxCell id="40" value="end" style="shape=mxgraph.flowchart.terminator;fillColor=#FFFFFF;strokeColor=#000000;strokeWidth=2;gradientColor=none;gradientDirection=north;fontColor=#001933;fontStyle=0;html=1;" parent="1" vertex="1">
                    <mxGeometry x="260" y="680" width="120" height="30" as="geometry"/>
                </mxCell>
                <mxCell id="43" value="" style="edgeStyle=orthogonalEdgeStyle;elbow=vertical;exitX=1;exitY=0.5;exitPerimeter=0;entryX=0.5;entryY=0;fontColor=#001933;fontStyle=1;strokeColor=#003366;strokeWidth=1;html=1;exitDx=0;exitDy=0;entryDx=0;entryDy=0;" parent="1" source="IXdv2FaGIRpFwEC2Vmre-55" target="IXdv2FaGIRpFwEC2Vmre-60" edge="1">
                    <mxGeometry x="360" y="-1705" width="100" height="100" as="geometry">
                        <mxPoint x="680" y="105" as="sourcePoint"/>
                        <mxPoint x="460" y="-1705" as="targetPoint"/>
                    </mxGeometry>
                </mxCell>
                <mxCell id="IXdv2FaGIRpFwEC2Vmre-55" value="???&lt;br&gt;" style="shape=mxgraph.flowchart.decision;fillColor=#FFFFFF;strokeColor=#000000;strokeWidth=2;gradientColor=none;gradientDirection=north;fontColor=#001933;fontStyle=0;html=1;" parent="1" vertex="1">
                    <mxGeometry x="245" y="190" width="150" height="100" as="geometry"/>
                </mxCell>
                <mxCell id="IXdv2FaGIRpFwEC2Vmre-56" value="???&lt;br&gt;" style="shape=mxgraph.flowchart.decision;fillColor=#FFFFFF;strokeColor=#000000;strokeWidth=2;gradientColor=none;gradientDirection=north;fontColor=#001933;fontStyle=0;html=1;" parent="1" vertex="1">
                    <mxGeometry x="244.5" y="310" width="150" height="100" as="geometry"/>
                </mxCell>
                <mxCell id="IXdv2FaGIRpFwEC2Vmre-57" value="???&lt;br&gt;" style="shape=mxgraph.flowchart.decision;fillColor=#FFFFFF;strokeColor=#000000;strokeWidth=2;gradientColor=none;gradientDirection=north;fontColor=#001933;fontStyle=0;html=1;" parent="1" vertex="1">
                    <mxGeometry x="244.5" y="430" width="150" height="100" as="geometry"/>
                </mxCell>
                <mxCell id="IXdv2FaGIRpFwEC2Vmre-60" value="???を出力" style="rounded=1;whiteSpace=wrap;html=1;strokeWidth=2;fillColor=#FFFFFF;fontColor=#001933;" parent="1" vertex="1">
                    <mxGeometry x="690" y="556" width="120" height="40" as="geometry"/>
                </mxCell>
                <mxCell id="IXdv2FaGIRpFwEC2Vmre-62" style="fontColor=#001933;fontStyle=1;strokeColor=#003366;strokeWidth=1;html=1;entryX=0.5;entryY=0;entryDx=0;entryDy=0;entryPerimeter=0;exitX=0.5;exitY=1;exitDx=0;exitDy=0;exitPerimeter=0;" parent="1" source="IXdv2FaGIRpFwEC2Vmre-55" target="IXdv2FaGIRpFwEC2Vmre-56" edge="1">
                    <mxGeometry relative="1" as="geometry">
                        <mxPoint x="330" y="220" as="sourcePoint"/>
                        <mxPoint x="330" y="260" as="targetPoint"/>
                    </mxGeometry>
                </mxCell>
                <mxCell id="IXdv2FaGIRpFwEC2Vmre-63" style="fontColor=#001933;fontStyle=1;strokeColor=#003366;strokeWidth=1;html=1;entryX=0.5;entryY=0;entryDx=0;entryDy=0;entryPerimeter=0;exitX=0.5;exitY=1;exitDx=0;exitDy=0;exitPerimeter=0;" parent="1" source="IXdv2FaGIRpFwEC2Vmre-56" target="IXdv2FaGIRpFwEC2Vmre-57" edge="1">
                    <mxGeometry relative="1" as="geometry">
                        <mxPoint x="320" y="430" as="sourcePoint"/>
                        <mxPoint x="320" y="450" as="targetPoint"/>
                    </mxGeometry>
                </mxCell>
                <mxCell id="IXdv2FaGIRpFwEC2Vmre-64" value="???を出力" style="rounded=1;whiteSpace=wrap;html=1;strokeWidth=2;fillColor=#FFFFFF;fontColor=#001933;" parent="1" vertex="1">
                    <mxGeometry x="550" y="556" width="120" height="40" as="geometry"/>
                </mxCell>
                <mxCell id="IXdv2FaGIRpFwEC2Vmre-65" value="???を出力" style="rounded=1;whiteSpace=wrap;html=1;strokeWidth=2;fillColor=#FFFFFF;fontColor=#001933;" parent="1" vertex="1">
                    <mxGeometry x="410" y="556" width="120" height="40" as="geometry"/>
                </mxCell>
                <mxCell id="IXdv2FaGIRpFwEC2Vmre-66" value="???を出力" style="rounded=1;whiteSpace=wrap;html=1;strokeWidth=2;fillColor=#FFFFFF;fontColor=#001933;" parent="1" vertex="1">
                    <mxGeometry x="259.5" y="556" width="120" height="40" as="geometry"/>
                </mxCell>
                <mxCell id="IXdv2FaGIRpFwEC2Vmre-67" value="" style="edgeStyle=orthogonalEdgeStyle;elbow=vertical;exitX=1;exitY=0.5;exitPerimeter=0;fontColor=#001933;fontStyle=1;strokeColor=#003366;strokeWidth=1;html=1;exitDx=0;exitDy=0;entryX=0.5;entryY=0;entryDx=0;entryDy=0;" parent="1" source="IXdv2FaGIRpFwEC2Vmre-56" target="IXdv2FaGIRpFwEC2Vmre-64" edge="1">
                    <mxGeometry x="370" y="-1695" width="100" height="100" as="geometry">
                        <mxPoint x="405" y="250" as="sourcePoint"/>
                        <mxPoint x="520" y="360" as="targetPoint"/>
                    </mxGeometry>
                </mxCell>
                <mxCell id="IXdv2FaGIRpFwEC2Vmre-68" value="" style="edgeStyle=orthogonalEdgeStyle;elbow=vertical;exitX=1;exitY=0.5;exitPerimeter=0;fontColor=#001933;fontStyle=1;strokeColor=#003366;strokeWidth=1;html=1;exitDx=0;exitDy=0;entryX=0.5;entryY=0;entryDx=0;entryDy=0;" parent="1" source="IXdv2FaGIRpFwEC2Vmre-57" target="IXdv2FaGIRpFwEC2Vmre-65" edge="1">
                    <mxGeometry x="380" y="-1685" width="100" height="100" as="geometry">
                        <mxPoint x="405" y="370" as="sourcePoint"/>
                        <mxPoint x="530" y="420" as="targetPoint"/>
                    </mxGeometry>
                </mxCell>
                <mxCell id="IXdv2FaGIRpFwEC2Vmre-70" style="fontColor=#001933;fontStyle=1;strokeColor=#003366;strokeWidth=1;html=1;entryX=0.5;entryY=0;entryDx=0;entryDy=0;exitX=0.5;exitY=1;exitDx=0;exitDy=0;exitPerimeter=0;" parent="1" source="IXdv2FaGIRpFwEC2Vmre-57" target="IXdv2FaGIRpFwEC2Vmre-66" edge="1">
                    <mxGeometry relative="1" as="geometry">
                        <mxPoint x="330" y="420" as="sourcePoint"/>
                        <mxPoint x="330" y="440" as="targetPoint"/>
                    </mxGeometry>
                </mxCell>
                <mxCell id="IXdv2FaGIRpFwEC2Vmre-71" style="fontColor=#001933;fontStyle=1;strokeColor=#003366;strokeWidth=1;html=1;entryX=0.5;entryY=0;entryDx=0;entryDy=0;exitX=0.5;exitY=1;exitDx=0;exitDy=0;entryPerimeter=0;" parent="1" source="IXdv2FaGIRpFwEC2Vmre-66" target="40" edge="1">
                    <mxGeometry relative="1" as="geometry">
                        <mxPoint x="330" y="540" as="sourcePoint"/>
                        <mxPoint x="330" y="566" as="targetPoint"/>
                    </mxGeometry>
                </mxCell>
                <mxCell id="IXdv2FaGIRpFwEC2Vmre-74" value="" style="edgeStyle=orthogonalEdgeStyle;elbow=vertical;exitX=0.5;exitY=1;fontColor=#001933;fontStyle=1;strokeColor=#003366;strokeWidth=1;html=1;exitDx=0;exitDy=0;entryX=0.5;entryY=0;entryDx=0;entryDy=0;entryPerimeter=0;" parent="1" source="IXdv2FaGIRpFwEC2Vmre-65" target="40" edge="1">
                    <mxGeometry x="390" y="-1675" width="100" height="100" as="geometry">
                        <mxPoint x="405" y="490" as="sourcePoint"/>
                        <mxPoint x="480" y="566" as="targetPoint"/>
                    </mxGeometry>
                </mxCell>
                <mxCell id="IXdv2FaGIRpFwEC2Vmre-75" value="" style="edgeStyle=orthogonalEdgeStyle;elbow=vertical;exitX=0.5;exitY=1;fontColor=#001933;fontStyle=1;strokeColor=#003366;strokeWidth=1;html=1;exitDx=0;exitDy=0;entryX=0.5;entryY=0;entryDx=0;entryDy=0;entryPerimeter=0;" parent="1" source="IXdv2FaGIRpFwEC2Vmre-64" target="40" edge="1">
                    <mxGeometry x="400" y="-1665" width="100" height="100" as="geometry">
                        <mxPoint x="480" y="606" as="sourcePoint"/>
                        <mxPoint x="330" y="690" as="targetPoint"/>
                    </mxGeometry>
                </mxCell>
                <mxCell id="IXdv2FaGIRpFwEC2Vmre-76" value="" style="edgeStyle=orthogonalEdgeStyle;elbow=vertical;exitX=0.5;exitY=1;fontColor=#001933;fontStyle=1;strokeColor=#003366;strokeWidth=1;html=1;exitDx=0;exitDy=0;entryX=0.5;entryY=0;entryDx=0;entryDy=0;entryPerimeter=0;" parent="1" source="IXdv2FaGIRpFwEC2Vmre-60" target="40" edge="1">
                    <mxGeometry x="410" y="-1655" width="100" height="100" as="geometry">
                        <mxPoint x="620" y="606" as="sourcePoint"/>
                        <mxPoint x="330" y="690" as="targetPoint"/>
                    </mxGeometry>
                </mxCell>
                <mxCell id="IXdv2FaGIRpFwEC2Vmre-77" value="yes" style="text;html=1;strokeColor=none;fillColor=none;align=center;verticalAlign=middle;whiteSpace=wrap;rounded=0;fontColor=#001933;" parent="1" vertex="1">
                    <mxGeometry x="395" y="240" width="40" height="20" as="geometry"/>
                </mxCell>
                <mxCell id="IXdv2FaGIRpFwEC2Vmre-81" value="no" style="text;html=1;strokeColor=none;fillColor=none;align=center;verticalAlign=middle;whiteSpace=wrap;rounded=0;fontColor=#001933;" parent="1" vertex="1">
                    <mxGeometry x="319" y="282" width="40" height="20" as="geometry"/>
                </mxCell>
                <mxCell id="IXdv2FaGIRpFwEC2Vmre-82" value="yes" style="text;html=1;strokeColor=none;fillColor=none;align=center;verticalAlign=middle;whiteSpace=wrap;rounded=0;fontColor=#001933;" parent="1" vertex="1">
                    <mxGeometry x="395" y="361" width="40" height="20" as="geometry"/>
                </mxCell>
                <mxCell id="IXdv2FaGIRpFwEC2Vmre-83" value="no" style="text;html=1;strokeColor=none;fillColor=none;align=center;verticalAlign=middle;whiteSpace=wrap;rounded=0;fontColor=#001933;" parent="1" vertex="1">
                    <mxGeometry x="319" y="403" width="40" height="20" as="geometry"/>
                </mxCell>
                <mxCell id="IXdv2FaGIRpFwEC2Vmre-84" value="yes" style="text;html=1;strokeColor=none;fillColor=none;align=center;verticalAlign=middle;whiteSpace=wrap;rounded=0;fontColor=#001933;" parent="1" vertex="1">
                    <mxGeometry x="395" y="479" width="40" height="20" as="geometry"/>
                </mxCell>
                <mxCell id="IXdv2FaGIRpFwEC2Vmre-85" value="no" style="text;html=1;strokeColor=none;fillColor=none;align=center;verticalAlign=middle;whiteSpace=wrap;rounded=0;fontColor=#001933;" parent="1" vertex="1">
                    <mxGeometry x="319" y="521" width="40" height="20" as="geometry"/>
                </mxCell>
                <mxCell id="ihnelbrHz02ZPMw_5gf4-43" value="&lt;div style=&quot;text-align: left&quot;&gt;&lt;br&gt;&lt;/div&gt;" style="rounded=0;whiteSpace=wrap;html=1;fillColor=#FFFFFF;shadow=0;strokeColor=#CCCCCC;" parent="1" vertex="1">
                    <mxGeometry x="449" y="70" width="442" height="140" as="geometry"/>
                </mxCell>
                <mxCell id="ihnelbrHz02ZPMw_5gf4-44" value="&lt;font style=&quot;font-size: 14px&quot;&gt;処理&lt;/font&gt;" style="rounded=1;whiteSpace=wrap;html=1;strokeWidth=2;fillColor=#FFFFFF;fontColor=#001933;" parent="1" vertex="1">
                    <mxGeometry x="608.5" y="140" width="130" height="38" as="geometry"/>
                </mxCell>
                <mxCell id="ihnelbrHz02ZPMw_5gf4-45" value="&lt;font style=&quot;font-size: 18px&quot;&gt;凡例&lt;/font&gt;" style="text;html=1;strokeColor=none;fillColor=none;align=center;verticalAlign=middle;whiteSpace=wrap;rounded=0;shadow=0;" parent="1" vertex="1">
                    <mxGeometry x="472.5" y="85" width="40" height="20" as="geometry"/>
                </mxCell>
                <mxCell id="ihnelbrHz02ZPMw_5gf4-46" value="&lt;span style=&quot;font-size: 14px&quot;&gt;条件分岐&lt;/span&gt;" style="shape=mxgraph.flowchart.decision;fillColor=#FFFFFF;strokeColor=#000000;strokeWidth=2;gradientColor=none;gradientDirection=north;fontColor=#001933;fontStyle=0;html=1;" parent="1" vertex="1">
                    <mxGeometry x="468.5" y="119" width="116" height="78" as="geometry"/>
                </mxCell>
                <mxCell id="ihnelbrHz02ZPMw_5gf4-49" value="データ" style="shape=mxgraph.flowchart.data;fillColor=#FFFFFF;strokeColor=#000000;strokeWidth=2;gradientColor=none;gradientDirection=north;fontColor=#001933;fontStyle=0;html=1;" parent="1" vertex="1">
                    <mxGeometry x="762.5" y="128" width="100" height="50" as="geometry"/>
                </mxCell>
            </root>
        </mxGraphModel>
    </diagram>
</mxfile>